<svg width="78" height="72" viewBox="0 0 78 72" fill="none" xmlns="http://www.w3.org/2000/svg">
<g clip-path="url(#clip0_16_395)">
<path d="M9.935 55C9.78767 55 9.72533 54.932 9.748 54.796L11.448 44.069C11.4707 43.933 11.5443 43.865 11.669 43.865H14.729C16.055 43.865 17.007 44.1313 17.585 44.664C18.1743 45.1853 18.469 45.9447 18.469 46.942C18.469 47.826 18.2763 48.5797 17.891 49.203C17.517 49.8263 16.973 50.3023 16.259 50.631C15.5563 50.9483 14.712 51.107 13.726 51.107H12.332L11.737 54.796C11.7143 54.932 11.6407 55 11.516 55H9.935ZM12.604 49.373H13.879C14.4343 49.373 14.9047 49.2937 15.29 49.135C15.6753 48.9763 15.9643 48.727 16.157 48.387C16.361 48.047 16.463 47.622 16.463 47.112C16.463 46.5793 16.3043 46.194 15.987 45.956C15.6697 45.718 15.188 45.599 14.542 45.599H13.199L12.604 49.373ZM19.2319 55C19.0845 55 19.0222 54.932 19.0449 54.796L20.7449 44.069C20.7675 43.933 20.8355 43.865 20.9489 43.865H22.5469C22.6942 43.865 22.7565 43.933 22.7339 44.069L21.0339 54.796C21.0112 54.932 20.9432 55 20.8299 55H19.2319ZM23.6645 55C23.5172 55 23.4548 54.932 23.4775 54.796L25.1775 44.069C25.2002 43.933 25.2682 43.865 25.3815 43.865H27.6425C27.7218 43.865 27.7785 43.882 27.8125 43.916C27.8465 43.95 27.8692 44.001 27.8805 44.069L29.7165 49.543C29.8978 50.053 30.0622 50.563 30.2095 51.073C30.3568 51.583 30.5042 52.0703 30.6515 52.535H30.6855C30.7195 52.2177 30.7535 51.906 30.7875 51.6C30.8215 51.2827 30.8555 50.971 30.8895 50.665C30.9348 50.3477 30.9858 50.036 31.0425 49.73L31.9265 44.069C31.9492 43.933 32.0228 43.865 32.1475 43.865H33.6945C33.8418 43.865 33.9042 43.933 33.8815 44.069L32.1645 54.796C32.1418 54.932 32.0738 55 31.9605 55H29.7505C29.6258 55 29.5408 54.932 29.4955 54.796L27.7445 49.594C27.5632 49.0387 27.3875 48.489 27.2175 47.945C27.0475 47.3897 26.8888 46.874 26.7415 46.398H26.7075C26.6622 46.7493 26.6168 47.095 26.5715 47.435C26.5262 47.775 26.4752 48.115 26.4185 48.455C26.3732 48.795 26.3222 49.1407 26.2655 49.492L25.4155 54.796C25.3928 54.932 25.3248 55 25.2115 55H23.6645ZM33.5117 55C33.4437 55 33.4041 54.983 33.3927 54.949C33.3701 54.915 33.3701 54.864 33.3927 54.796L38.6797 44.069C38.7477 43.933 38.8214 43.865 38.9007 43.865H41.0767C41.1787 43.865 41.2467 43.933 41.2807 44.069L43.2017 54.796C43.2131 54.8527 43.2017 54.9037 43.1677 54.949C43.1337 54.983 43.0827 55 43.0147 55H41.2637C41.1504 55 41.0824 54.932 41.0597 54.796L40.0737 48.149C40.0171 47.741 39.9604 47.3273 39.9037 46.908C39.8471 46.4773 39.7961 46.0523 39.7507 45.633H39.7167C39.5467 46.0523 39.3654 46.4717 39.1727 46.891C38.9914 47.299 38.7987 47.7183 38.5947 48.149L35.5177 54.796C35.4951 54.8527 35.4611 54.9037 35.4157 54.949C35.3704 54.983 35.3194 55 35.2627 55H33.5117ZM36.1977 52.671L36.8437 51.005H40.9067L41.0427 52.671H36.1977ZM47.9679 55.204C47.0839 55.204 46.3359 55.085 45.7239 54.847C45.1119 54.609 44.6812 54.2407 44.4319 53.742C44.1825 53.2433 44.1372 52.603 44.2959 51.821C44.3299 51.685 44.4149 51.617 44.5509 51.617H46.0469C46.1149 51.617 46.1659 51.6397 46.1999 51.685C46.2452 51.719 46.2565 51.77 46.2339 51.838C46.1659 52.2347 46.1999 52.552 46.3359 52.79C46.4719 53.028 46.6985 53.2037 47.0159 53.317C47.3332 53.419 47.7072 53.47 48.1379 53.47C48.8519 53.47 49.3845 53.3453 49.7359 53.096C50.0985 52.8467 50.2799 52.4897 50.2799 52.025C50.2799 51.7983 50.2345 51.6057 50.1439 51.447C50.0645 51.2883 49.9342 51.141 49.7529 51.005C49.5715 50.8577 49.3279 50.7103 49.0219 50.563L47.0499 49.611C46.6192 49.407 46.2679 49.1803 45.9959 48.931C45.7239 48.6703 45.5199 48.3757 45.3839 48.047C45.2479 47.707 45.1799 47.3217 45.1799 46.891C45.1799 45.871 45.5425 45.0833 46.2679 44.528C46.9932 43.9613 47.9849 43.678 49.2429 43.678C50.0929 43.678 50.8125 43.797 51.4019 44.035C52.0025 44.273 52.4332 44.6357 52.6939 45.123C52.9545 45.6103 53.0112 46.228 52.8639 46.976C52.8299 47.112 52.7619 47.18 52.6599 47.18H51.0959C50.9599 47.18 50.9032 47.1063 50.9259 46.959C50.9939 46.3923 50.8579 45.99 50.5179 45.752C50.1779 45.514 49.7075 45.395 49.1069 45.395C48.5175 45.395 48.0529 45.514 47.7129 45.752C47.3729 45.9787 47.2029 46.3017 47.2029 46.721C47.2029 46.9023 47.2425 47.078 47.3219 47.248C47.4012 47.4067 47.5202 47.554 47.6789 47.69C47.8489 47.8147 48.0699 47.945 48.3419 48.081L50.3139 49.033C50.7785 49.2483 51.1582 49.492 51.4529 49.764C51.7589 50.036 51.9799 50.342 52.1159 50.682C52.2519 51.022 52.3199 51.4187 52.3199 51.872C52.3199 52.926 51.9459 53.7477 51.1979 54.337C50.4499 54.915 49.3732 55.204 47.9679 55.204ZM53.0265 55C52.9699 55 52.9302 54.9887 52.9075 54.966C52.8735 54.932 52.8565 54.8867 52.8565 54.83L52.8735 54.745C52.8735 54.6997 52.8849 54.6543 52.9075 54.609C52.9189 54.5637 52.9415 54.5183 52.9755 54.473L58.5855 47.265C58.7895 46.993 58.9935 46.7267 59.1975 46.466C59.4129 46.2053 59.6282 45.9447 59.8435 45.684V45.65C59.5375 45.65 59.2315 45.65 58.9255 45.65C58.6195 45.65 58.3135 45.65 58.0075 45.65H55.0325C54.9645 45.65 54.9135 45.633 54.8795 45.599C54.8455 45.565 54.8342 45.5197 54.8455 45.463L55.0835 44.069C55.1062 43.933 55.1742 43.865 55.2875 43.865H63.0735C63.1869 43.865 63.2379 43.9273 63.2265 44.052V44.137C63.2152 44.171 63.1982 44.2107 63.1755 44.256C63.1642 44.29 63.1415 44.3353 63.1075 44.392L57.5145 51.532C57.2992 51.804 57.0782 52.0817 56.8515 52.365C56.6249 52.637 56.3982 52.9147 56.1715 53.198V53.215C56.5002 53.215 56.8232 53.215 57.1405 53.215C57.4692 53.215 57.8035 53.215 58.1435 53.215H61.1865C61.2432 53.215 61.2885 53.232 61.3225 53.266C61.3679 53.2887 61.3792 53.334 61.3565 53.402L61.1355 54.796C61.1242 54.8527 61.0959 54.9037 61.0505 54.949C61.0165 54.983 60.9712 55 60.9145 55H53.0265Z" fill="#67CCB9"/>
<path d="M38.9306 14.755C39.3391 15.4625 39.0983 16.361 38.3933 16.76L33.7285 19.4532L33.4047 28.682L31.7113 29.6677L29.9246 21.6574L25.2478 24.3576L24.9624 26.7848L23.6818 27.5162L22.8231 24.0626L20.2547 21.5802L21.5309 20.8274L23.8015 21.8109L28.4423 19.1315L22.4062 13.5507L24.1065 12.5771L32.2608 16.911L36.9256 14.2177C37.6022 13.8111 38.5479 14.0645 38.9306 14.755Z" fill="black"/>
<path d="M69.3379 56.7845C20.3083 80.8077 -22.5239 56.3239 22.1504 24.6193" stroke="black" stroke-linejoin="round" stroke-dasharray="2 2"/>
</g>
<defs>
<clipPath id="clip0_16_395">
<rect width="78" height="72" fill="white"/>
</clipPath>
</defs>
</svg>
